<svg width="151" height="30" viewBox="0 0 151 30" fill="none" xmlns="http://www.w3.org/2000/svg">
<path d="M23.5625 13.125H21.75V15H23.5625C24.2833 15.0007 24.9744 15.2973 25.4842 15.8246C25.9939 16.3519 26.2805 17.0668 26.2812 17.8125V21.5625H28.0938V17.8125C28.0923 16.5698 27.6145 15.3783 26.765 14.4996C25.9155 13.6208 24.7638 13.1265 23.5625 13.125ZM21.75 3.75C22.2877 3.75 22.8134 3.91495 23.2605 4.22399C23.7076 4.53303 24.056 4.97229 24.2618 5.4862C24.4676 6.00012 24.5214 6.56562 24.4165 7.11119C24.3116 7.65676 24.0527 8.1579 23.6724 8.55124C23.2922 8.94457 22.8078 9.21244 22.2804 9.32096C21.753 9.42948 21.2064 9.37378 20.7096 9.16091C20.2128 8.94804 19.7882 8.58755 19.4894 8.12504C19.1907 7.66253 19.0312 7.11876 19.0312 6.5625C19.0312 5.81658 19.3177 5.10121 19.8276 4.57376C20.3374 4.04632 21.0289 3.75 21.75 3.75M21.75 1.875C20.8538 1.875 19.9777 2.14992 19.2326 2.66499C18.4874 3.18006 17.9066 3.91214 17.5637 4.76867C17.2207 5.6252 17.131 6.5677 17.3058 7.47699C17.4807 8.38627 17.9122 9.2215 18.5459 9.87706C19.1796 10.5326 19.987 10.9791 20.866 11.1599C21.745 11.3408 22.6561 11.248 23.484 10.8932C24.312 10.5384 25.0197 9.93759 25.5176 9.16674C26.0155 8.39588 26.2812 7.4896 26.2812 6.5625C26.2812 5.3193 25.8039 4.12701 24.9541 3.24794C24.1043 2.36886 22.9518 1.875 21.75 1.875V1.875ZM20.8438 30H19.0312V28.125C19.0305 27.3793 18.7439 26.6644 18.2342 26.1371C17.7244 25.6098 17.0333 25.3132 16.3125 25.3125H12.6875C11.9667 25.3132 11.2756 25.6098 10.7658 26.1371C10.2561 26.6644 9.96947 27.3793 9.96875 28.125V30H8.15625V28.125C8.15769 26.8823 8.63555 25.6908 9.48501 24.8121C10.3345 23.9333 11.4862 23.439 12.6875 23.4375H16.3125C17.5138 23.439 18.6655 23.9333 19.515 24.8121C20.3645 25.6908 20.8423 26.8823 20.8438 28.125V30ZM14.5 14.0625C15.0377 14.0625 15.5634 14.2275 16.0105 14.5365C16.4576 14.8455 16.806 15.2848 17.0118 15.7987C17.2176 16.3126 17.2714 16.8781 17.1665 17.4237C17.0616 17.9693 16.8027 18.4704 16.4224 18.8637C16.0422 19.2571 15.5578 19.5249 15.0304 19.6335C14.503 19.742 13.9564 19.6863 13.4596 19.4734C12.9628 19.2605 12.5382 18.9001 12.2394 18.4375C11.9407 17.975 11.7813 17.4313 11.7812 16.875C11.7813 16.1291 12.0677 15.4137 12.5776 14.8863C13.0874 14.3588 13.7789 14.0625 14.5 14.0625M14.5 12.1875C13.6038 12.1875 12.7277 12.4624 11.9826 12.9775C11.2374 13.4926 10.6566 14.2246 10.3137 15.0812C9.97071 15.9377 9.88098 16.8802 10.0558 17.7895C10.2307 18.6988 10.6622 19.534 11.2959 20.1896C11.9296 20.8451 12.737 21.2916 13.616 21.4724C14.495 21.6533 15.4061 21.5605 16.234 21.2057C17.062 20.8509 17.7697 20.2501 18.2676 19.4792C18.7655 18.7084 19.0312 17.8021 19.0312 16.875C19.0312 15.6318 18.5539 14.4395 17.7041 13.5604C16.8543 12.6814 15.7018 12.1875 14.5 12.1875ZM7.25 16.875H5.4375C4.23618 16.8765 3.08447 17.3708 2.23501 18.2496C1.38555 19.1283 0.907689 20.3198 0.90625 21.5625V25.3125H2.71875V21.5625C2.71947 20.8168 3.00614 20.1019 3.51585 19.5746C4.02556 19.0473 4.71666 18.7507 5.4375 18.75H7.25V16.875ZM7.25 3.75C7.78772 3.75 8.31336 3.91495 8.76046 4.22399C9.20755 4.53303 9.55602 4.97229 9.7618 5.4862C9.96757 6.00012 10.0214 6.56562 9.91651 7.11119C9.81161 7.65676 9.55267 8.1579 9.17245 8.55124C8.79222 8.94457 8.30779 9.21244 7.7804 9.32096C7.25302 9.42948 6.70637 9.37378 6.20958 9.16091C5.71279 8.94804 5.28818 8.58755 4.98944 8.12504C4.6907 7.66253 4.53125 7.11876 4.53125 6.5625C4.53125 5.81658 4.81769 5.10121 5.32755 4.57376C5.83742 4.04632 6.52894 3.75 7.25 3.75M7.25 1.875C6.3538 1.875 5.47773 2.14992 4.73257 2.66499C3.98741 3.18006 3.40663 3.91214 3.06367 4.76867C2.72071 5.6252 2.63098 6.5677 2.80582 7.47699C2.98066 8.38627 3.41222 9.2215 4.04592 9.87706C4.67963 10.5326 5.48702 10.9791 6.366 11.1599C7.24497 11.3408 8.15606 11.248 8.98403 10.8932C9.81201 10.5384 10.5197 9.93759 11.0176 9.16674C11.5155 8.39588 11.7812 7.4896 11.7812 6.5625C11.7812 5.3193 11.3039 4.12701 10.4541 3.24794C9.6043 2.36886 8.45176 1.875 7.25 1.875V1.875Z" fill="#F8F8F8"/>
<path d="M42.298 19.894C42.61 19.894 42.868 19.996 43.072 20.2C43.288 20.392 43.396 20.644 43.396 20.956C43.396 21.256 43.288 21.508 43.072 21.712C42.868 21.904 42.61 22 42.298 22H36.448C36.136 22 35.872 21.898 35.656 21.694C35.452 21.478 35.35 21.214 35.35 20.902V10.498C35.35 10.186 35.458 9.928 35.674 9.724C35.89 9.508 36.166 9.4 36.502 9.4C36.79 9.4 37.042 9.508 37.258 9.724C37.486 9.928 37.6 10.186 37.6 10.498V20.2L37.204 19.894H42.298ZM53.1614 12.19C53.4734 12.19 53.7314 12.292 53.9354 12.496C54.1394 12.7 54.2414 12.964 54.2414 13.288V20.902C54.2414 21.214 54.1394 21.478 53.9354 21.694C53.7314 21.898 53.4734 22 53.1614 22C52.8494 22 52.5914 21.898 52.3874 21.694C52.1834 21.478 52.0814 21.214 52.0814 20.902V20.02L52.4774 20.182C52.4774 20.338 52.3934 20.53 52.2254 20.758C52.0574 20.974 51.8294 21.19 51.5414 21.406C51.2534 21.622 50.9114 21.808 50.5154 21.964C50.1314 22.108 49.7114 22.18 49.2554 22.18C48.4274 22.18 47.6774 21.97 47.0054 21.55C46.3334 21.118 45.7994 20.53 45.4034 19.786C45.0194 19.03 44.8274 18.166 44.8274 17.194C44.8274 16.21 45.0194 15.346 45.4034 14.602C45.7994 13.846 46.3274 13.258 46.9874 12.838C47.6474 12.406 48.3794 12.19 49.1834 12.19C49.6994 12.19 50.1734 12.268 50.6054 12.424C51.0374 12.58 51.4094 12.778 51.7214 13.018C52.0454 13.258 52.2914 13.504 52.4594 13.756C52.6394 13.996 52.7294 14.2 52.7294 14.368L52.0814 14.602V13.288C52.0814 12.976 52.1834 12.718 52.3874 12.514C52.5914 12.298 52.8494 12.19 53.1614 12.19ZM49.5254 20.2C50.0534 20.2 50.5154 20.068 50.9114 19.804C51.3074 19.54 51.6134 19.18 51.8294 18.724C52.0574 18.268 52.1714 17.758 52.1714 17.194C52.1714 16.618 52.0574 16.102 51.8294 15.646C51.6134 15.19 51.3074 14.83 50.9114 14.566C50.5154 14.302 50.0534 14.17 49.5254 14.17C49.0094 14.17 48.5534 14.302 48.1574 14.566C47.7614 14.83 47.4494 15.19 47.2214 15.646C47.0054 16.102 46.8974 16.618 46.8974 17.194C46.8974 17.758 47.0054 18.268 47.2214 18.724C47.4494 19.18 47.7614 19.54 48.1574 19.804C48.5534 20.068 49.0094 20.2 49.5254 20.2ZM64.4642 8.68C64.7762 8.68 65.0342 8.782 65.2382 8.986C65.4422 9.19 65.5442 9.454 65.5442 9.778V20.902C65.5442 21.214 65.4422 21.478 65.2382 21.694C65.0342 21.898 64.7762 22 64.4642 22C64.1522 22 63.8942 21.898 63.6902 21.694C63.4862 21.478 63.3842 21.214 63.3842 20.902V20.02L63.7802 20.182C63.7802 20.338 63.6962 20.53 63.5282 20.758C63.3602 20.974 63.1322 21.19 62.8442 21.406C62.5562 21.622 62.2142 21.808 61.8182 21.964C61.4342 22.108 61.0142 22.18 60.5582 22.18C59.7302 22.18 58.9802 21.97 58.3082 21.55C57.6362 21.118 57.1022 20.53 56.7062 19.786C56.3222 19.03 56.1302 18.166 56.1302 17.194C56.1302 16.21 56.3222 15.346 56.7062 14.602C57.1022 13.846 57.6302 13.258 58.2902 12.838C58.9502 12.406 59.6822 12.19 60.4862 12.19C61.0022 12.19 61.4762 12.268 61.9082 12.424C62.3402 12.58 62.7122 12.778 63.0242 13.018C63.3482 13.258 63.5942 13.504 63.7622 13.756C63.9422 13.996 64.0322 14.2 64.0322 14.368L63.3842 14.602V9.778C63.3842 9.466 63.4862 9.208 63.6902 9.004C63.8942 8.788 64.1522 8.68 64.4642 8.68ZM60.8282 20.2C61.3562 20.2 61.8182 20.068 62.2142 19.804C62.6102 19.54 62.9162 19.18 63.1322 18.724C63.3602 18.268 63.4742 17.758 63.4742 17.194C63.4742 16.618 63.3602 16.102 63.1322 15.646C62.9162 15.19 62.6102 14.83 62.2142 14.566C61.8182 14.302 61.3562 14.17 60.8282 14.17C60.3122 14.17 59.8562 14.302 59.4602 14.566C59.0642 14.83 58.7522 15.19 58.5242 15.646C58.3082 16.102 58.2002 16.618 58.2002 17.194C58.2002 17.758 58.3082 18.268 58.5242 18.724C58.7522 19.18 59.0642 19.54 59.4602 19.804C59.8562 20.068 60.3122 20.2 60.8282 20.2ZM69.9169 20.902C69.9169 21.214 69.8149 21.478 69.6109 21.694C69.4069 21.898 69.1489 22 68.8369 22C68.5249 22 68.2669 21.898 68.0629 21.694C67.8589 21.478 67.7569 21.214 67.7569 20.902V13.468C67.7569 13.156 67.8589 12.898 68.0629 12.694C68.2669 12.478 68.5249 12.37 68.8369 12.37C69.1489 12.37 69.4069 12.478 69.6109 12.694C69.8149 12.898 69.9169 13.156 69.9169 13.468V20.902ZM68.8189 11.2C68.4109 11.2 68.1229 11.134 67.9549 11.002C67.7869 10.87 67.7029 10.636 67.7029 10.3V9.958C67.7029 9.61 67.7929 9.376 67.9729 9.256C68.1649 9.124 68.4529 9.058 68.8369 9.058C69.2569 9.058 69.5509 9.124 69.7189 9.256C69.8869 9.388 69.9709 9.622 69.9709 9.958V10.3C69.9709 10.648 69.8809 10.888 69.7009 11.02C69.5209 11.14 69.2269 11.2 68.8189 11.2ZM72.9648 17.554C72.6528 17.554 72.3888 17.452 72.1728 17.248C71.9688 17.044 71.8668 16.786 71.8668 16.474C71.8668 16.162 71.9688 15.91 72.1728 15.718C72.3888 15.514 72.6528 15.412 72.9648 15.412H76.0968C76.4088 15.412 76.6668 15.52 76.8708 15.736C77.0868 15.94 77.1948 16.198 77.1948 16.51C77.1948 16.81 77.0868 17.062 76.8708 17.266C76.6668 17.458 76.4088 17.554 76.0968 17.554H72.9648ZM88.1295 22C87.7935 22 87.5235 21.862 87.3195 21.586L83.1615 16.114L84.7995 14.44L89.1015 20.128C89.2695 20.356 89.3535 20.602 89.3535 20.866C89.3535 21.202 89.2275 21.478 88.9755 21.694C88.7235 21.898 88.4415 22 88.1295 22ZM88.3455 9.31C88.6335 9.31 88.8675 9.43 89.0475 9.67C89.2395 9.898 89.3355 10.132 89.3355 10.372C89.3355 10.624 89.2275 10.858 89.0115 11.074L81.4695 18.292L81.3795 15.718L87.4635 9.724C87.7395 9.448 88.0335 9.31 88.3455 9.31ZM80.5695 22C80.2335 22 79.9635 21.898 79.7595 21.694C79.5555 21.478 79.4535 21.214 79.4535 20.902V10.498C79.4535 10.186 79.5615 9.928 79.7775 9.724C79.9935 9.508 80.2695 9.4 80.6055 9.4C80.9415 9.4 81.2055 9.508 81.3975 9.724C81.6015 9.928 81.7035 10.186 81.7035 10.498V20.902C81.7035 21.214 81.6015 21.478 81.3975 21.694C81.1935 21.898 80.9175 22 80.5695 22ZM95.2177 22.18C94.1977 22.18 93.3097 21.97 92.5537 21.55C91.8097 21.118 91.2337 20.536 90.8257 19.804C90.4297 19.072 90.2317 18.244 90.2317 17.32C90.2317 16.24 90.4477 15.322 90.8797 14.566C91.3237 13.798 91.8997 13.21 92.6077 12.802C93.3157 12.394 94.0657 12.19 94.8577 12.19C95.4697 12.19 96.0457 12.316 96.5857 12.568C97.1377 12.82 97.6237 13.168 98.0437 13.612C98.4637 14.044 98.7937 14.548 99.0337 15.124C99.2857 15.7 99.4117 16.312 99.4117 16.96C99.3997 17.248 99.2857 17.482 99.0697 17.662C98.8537 17.842 98.6017 17.932 98.3137 17.932H91.4377L90.8977 16.132H97.5037L97.1077 16.492V16.006C97.0837 15.658 96.9577 15.346 96.7297 15.07C96.5137 14.794 96.2377 14.578 95.9017 14.422C95.5777 14.254 95.2297 14.17 94.8577 14.17C94.4977 14.17 94.1617 14.218 93.8497 14.314C93.5377 14.41 93.2677 14.572 93.0397 14.8C92.8117 15.028 92.6317 15.334 92.4997 15.718C92.3677 16.102 92.3017 16.588 92.3017 17.176C92.3017 17.824 92.4337 18.376 92.6977 18.832C92.9737 19.276 93.3217 19.618 93.7417 19.858C94.1737 20.086 94.6297 20.2 95.1097 20.2C95.5537 20.2 95.9077 20.164 96.1717 20.092C96.4357 20.02 96.6457 19.936 96.8017 19.84C96.9697 19.732 97.1197 19.642 97.2517 19.57C97.4677 19.462 97.6717 19.408 97.8637 19.408C98.1277 19.408 98.3437 19.498 98.5117 19.678C98.6917 19.858 98.7817 20.068 98.7817 20.308C98.7817 20.632 98.6137 20.926 98.2777 21.19C97.9657 21.454 97.5277 21.688 96.9637 21.892C96.3997 22.084 95.8177 22.18 95.2177 22.18ZM105.835 22.18C104.815 22.18 103.927 21.97 103.171 21.55C102.427 21.118 101.851 20.536 101.443 19.804C101.047 19.072 100.849 18.244 100.849 17.32C100.849 16.24 101.065 15.322 101.497 14.566C101.941 13.798 102.517 13.21 103.225 12.802C103.933 12.394 104.683 12.19 105.475 12.19C106.087 12.19 106.663 12.316 107.203 12.568C107.755 12.82 108.241 13.168 108.661 13.612C109.081 14.044 109.411 14.548 109.651 15.124C109.903 15.7 110.029 16.312 110.029 16.96C110.017 17.248 109.903 17.482 109.687 17.662C109.471 17.842 109.219 17.932 108.931 17.932H102.055L101.515 16.132H108.121L107.725 16.492V16.006C107.701 15.658 107.575 15.346 107.347 15.07C107.131 14.794 106.855 14.578 106.519 14.422C106.195 14.254 105.847 14.17 105.475 14.17C105.115 14.17 104.779 14.218 104.467 14.314C104.155 14.41 103.885 14.572 103.657 14.8C103.429 15.028 103.249 15.334 103.117 15.718C102.985 16.102 102.919 16.588 102.919 17.176C102.919 17.824 103.051 18.376 103.315 18.832C103.591 19.276 103.939 19.618 104.359 19.858C104.791 20.086 105.247 20.2 105.727 20.2C106.171 20.2 106.525 20.164 106.789 20.092C107.053 20.02 107.263 19.936 107.419 19.84C107.587 19.732 107.737 19.642 107.869 19.57C108.085 19.462 108.289 19.408 108.481 19.408C108.745 19.408 108.961 19.498 109.129 19.678C109.309 19.858 109.399 20.068 109.399 20.308C109.399 20.632 109.231 20.926 108.895 21.19C108.583 21.454 108.145 21.688 107.581 21.892C107.017 22.084 106.435 22.18 105.835 22.18ZM116.902 12.19C117.742 12.19 118.492 12.406 119.152 12.838C119.824 13.258 120.352 13.84 120.736 14.584C121.132 15.328 121.33 16.192 121.33 17.176C121.33 18.16 121.132 19.03 120.736 19.786C120.352 20.53 119.83 21.118 119.17 21.55C118.522 21.97 117.79 22.18 116.974 22.18C116.494 22.18 116.044 22.102 115.624 21.946C115.204 21.79 114.832 21.592 114.508 21.352C114.196 21.112 113.95 20.872 113.77 20.632C113.602 20.38 113.518 20.17 113.518 20.002L114.076 19.768V24.502C114.076 24.814 113.974 25.072 113.77 25.276C113.566 25.492 113.308 25.6 112.996 25.6C112.684 25.6 112.426 25.498 112.222 25.294C112.018 25.09 111.916 24.826 111.916 24.502V13.468C111.916 13.156 112.018 12.898 112.222 12.694C112.426 12.478 112.684 12.37 112.996 12.37C113.308 12.37 113.566 12.478 113.77 12.694C113.974 12.898 114.076 13.156 114.076 13.468V14.35L113.77 14.188C113.77 14.032 113.854 13.846 114.022 13.63C114.19 13.402 114.418 13.18 114.706 12.964C114.994 12.736 115.324 12.55 115.696 12.406C116.08 12.262 116.482 12.19 116.902 12.19ZM116.632 14.17C116.104 14.17 115.642 14.302 115.246 14.566C114.85 14.83 114.538 15.19 114.31 15.646C114.094 16.09 113.986 16.6 113.986 17.176C113.986 17.74 114.094 18.256 114.31 18.724C114.538 19.18 114.85 19.54 115.246 19.804C115.642 20.068 116.104 20.2 116.632 20.2C117.16 20.2 117.616 20.068 118 19.804C118.396 19.54 118.702 19.18 118.918 18.724C119.146 18.256 119.26 17.74 119.26 17.176C119.26 16.6 119.146 16.09 118.918 15.646C118.702 15.19 118.396 14.83 118 14.566C117.616 14.302 117.16 14.17 116.632 14.17ZM125.253 20.902C125.253 21.214 125.151 21.478 124.947 21.694C124.743 21.898 124.485 22 124.173 22C123.861 22 123.603 21.898 123.399 21.694C123.195 21.478 123.093 21.214 123.093 20.902V13.468C123.093 13.156 123.195 12.898 123.399 12.694C123.603 12.478 123.861 12.37 124.173 12.37C124.485 12.37 124.743 12.478 124.947 12.694C125.151 12.898 125.253 13.156 125.253 13.468V20.902ZM124.155 11.2C123.747 11.2 123.459 11.134 123.291 11.002C123.123 10.87 123.039 10.636 123.039 10.3V9.958C123.039 9.61 123.129 9.376 123.309 9.256C123.501 9.124 123.789 9.058 124.173 9.058C124.593 9.058 124.887 9.124 125.055 9.256C125.223 9.388 125.307 9.622 125.307 9.958V10.3C125.307 10.648 125.217 10.888 125.037 11.02C124.857 11.14 124.563 11.2 124.155 11.2ZM132.621 12.19C133.509 12.19 134.181 12.376 134.637 12.748C135.105 13.12 135.423 13.618 135.591 14.242C135.771 14.854 135.861 15.538 135.861 16.294V20.902C135.861 21.214 135.759 21.478 135.555 21.694C135.351 21.898 135.093 22 134.781 22C134.469 22 134.211 21.898 134.007 21.694C133.803 21.478 133.701 21.214 133.701 20.902V16.294C133.701 15.898 133.647 15.544 133.539 15.232C133.443 14.908 133.263 14.65 132.999 14.458C132.735 14.266 132.357 14.17 131.865 14.17C131.385 14.17 130.977 14.266 130.641 14.458C130.317 14.65 130.065 14.908 129.885 15.232C129.717 15.544 129.633 15.898 129.633 16.294V20.902C129.633 21.214 129.531 21.478 129.327 21.694C129.123 21.898 128.865 22 128.553 22C128.241 22 127.983 21.898 127.779 21.694C127.575 21.478 127.473 21.214 127.473 20.902V13.468C127.473 13.156 127.575 12.898 127.779 12.694C127.983 12.478 128.241 12.37 128.553 12.37C128.865 12.37 129.123 12.478 129.327 12.694C129.531 12.898 129.633 13.156 129.633 13.468V14.242L129.363 14.188C129.471 13.984 129.627 13.768 129.831 13.54C130.035 13.3 130.275 13.078 130.551 12.874C130.827 12.67 131.139 12.508 131.487 12.388C131.835 12.256 132.213 12.19 132.621 12.19ZM142.191 12.19C142.695 12.19 143.157 12.268 143.577 12.424C143.997 12.58 144.357 12.778 144.657 13.018C144.969 13.258 145.209 13.504 145.377 13.756C145.557 13.996 145.647 14.2 145.647 14.368L145.179 14.602V13.288C145.179 12.976 145.281 12.718 145.485 12.514C145.689 12.298 145.947 12.19 146.259 12.19C146.571 12.19 146.829 12.292 147.033 12.496C147.237 12.7 147.339 12.964 147.339 13.288V21.298C147.339 22.342 147.111 23.176 146.655 23.8C146.211 24.436 145.623 24.892 144.891 25.168C144.159 25.456 143.373 25.6 142.533 25.6C142.293 25.6 141.981 25.57 141.597 25.51C141.213 25.45 140.847 25.378 140.499 25.294C140.151 25.21 139.887 25.132 139.707 25.06C139.347 24.904 139.095 24.706 138.951 24.466C138.819 24.238 138.795 23.992 138.879 23.728C138.987 23.38 139.161 23.14 139.401 23.008C139.641 22.888 139.893 22.876 140.157 22.972C140.277 23.008 140.475 23.08 140.751 23.188C141.027 23.296 141.327 23.392 141.651 23.476C141.987 23.572 142.281 23.62 142.533 23.62C143.433 23.62 144.099 23.44 144.531 23.08C144.963 22.72 145.179 22.222 145.179 21.586V20.02L145.395 20.182C145.395 20.338 145.311 20.53 145.143 20.758C144.987 20.974 144.765 21.19 144.477 21.406C144.201 21.622 143.871 21.808 143.487 21.964C143.103 22.108 142.695 22.18 142.263 22.18C141.411 22.18 140.643 21.97 139.959 21.55C139.275 21.118 138.735 20.53 138.339 19.786C137.943 19.03 137.745 18.166 137.745 17.194C137.745 16.21 137.943 15.346 138.339 14.602C138.735 13.846 139.269 13.258 139.941 12.838C140.613 12.406 141.363 12.19 142.191 12.19ZM142.533 14.17C141.993 14.17 141.519 14.302 141.111 14.566C140.703 14.83 140.385 15.19 140.157 15.646C139.929 16.102 139.815 16.618 139.815 17.194C139.815 17.758 139.929 18.268 140.157 18.724C140.385 19.18 140.703 19.54 141.111 19.804C141.519 20.068 141.993 20.2 142.533 20.2C143.085 20.2 143.565 20.068 143.973 19.804C144.381 19.54 144.699 19.18 144.927 18.724C145.155 18.268 145.269 17.758 145.269 17.194C145.269 16.618 145.155 16.102 144.927 15.646C144.699 15.19 144.381 14.83 143.973 14.566C143.565 14.302 143.085 14.17 142.533 14.17Z" fill="#FFFBFB"/>
</svg>
